<?xml version="1.0" encoding="UTF-8" standalone="no"?>
<svg
   xmlns="http://www.w3.org/2000/svg"
   width="34.812717"
   height="33.922657"
   viewBox="0 -5 35 45"
   version="1.1"
   id="svg305">
  <title
     id="title5803">IU Logo Icon</title>
  <defs
     id="defs5256" />
  <path
     id="iu"
     d="M 6.519929,7.5100946 C 4.403067,8.6450374 1.7072701,7.9477118 0.80318798,6.0395326 0.05876629,4.4683369 0.16538517,1.840643 2.1718283,0.60979053 4.4319953,-0.58346226 7.1079024,0.02837457 8.0709068,1.9748146 9.0755019,4.0053185 8.5908729,6.2586288 6.519929,7.5100946 Z M 8.7234686,9.9048803 C 8.7002156,11.28488 8.693748,29.108661 8.7237478,33.918661 c -2.5016522,-0.01981 -2.2824654,0 -4.1624654,0 -1.25,0 -2.6875346,0 -4.55753462,0 0.004586,-4.572406 -0.0103785,-21.61953 0,-23.9931097 1.58146292,0.0083 6.58972082,0.01989 8.71972082,-0.01378 z m 12.2802794,0.013781 c -0.01184,7.2179167 -0.04436,12.3331707 0,14.8074847 0.01832,1.021644 0.637904,1.940292 2.629909,2.040008 2.064647,0.0085 3.054249,-0.901503 3.070091,-1.955738 0.03797,-2.52662 0.04611,-9.75613 0,-14.8917547 2.14,0.03 5.380895,-0.03401 8.1,0 -0.0096,1.0332387 -0.01421,1.8474917 0,7.5974917 0.0282,9.635188 -0.02104,14.087249 0,14.252031 -0.03415,2.120236 -0.130119,2.106845 -3.745919,2.150477 -3.454871,0.04169 -3.609643,-0.215165 -3.55417,-2.092508 -1.39,0.86 -2.515284,2.066738 -7.157453,2.092508 C 16.149104,33.75674 13.638239,30.994303 13.239932,27.553747 12.746968,23.295536 12.985693,15.492814 12.883659,9.9186613 Z"
     style="fill:#ffffff;stroke:none;stroke-width:1"/>
</svg>
